<?xml version="1.0" standalone="no"?>
<!DOCTYPE svg PUBLIC "-//W3C//DTD SVG 20010904//EN"
 "http://www.w3.org/TR/2001/REC-SVG-20010904/DTD/svg10.dtd">
<svg version="1.0" xmlns="http://www.w3.org/2000/svg"
 width="346.000000pt" height="346.000000pt" viewBox="0 0 346.000000 346.000000"
 preserveAspectRatio="xMidYMid meet">

<g transform="translate(0.000000,346.000000) scale(0.100000,-0.100000)"
fill="#000000" stroke="none">
<path d="M142 3028 l3 -303 291 -3 c239 -2 293 0 303 12 8 9 11 96 9 302 l-3
289 -303 3 -302 2 2 -302z m513 -3 l0 -210 -205 -3 c-184 -2 -206 -1 -217 15
-14 18 -19 345 -7 391 l6 22 212 -2 211 -3 0 -210z"/>
<path d="M317 3154 c-4 -4 -7 -63 -7 -131 l0 -123 130 0 131 0 -3 128 -3 127
-121 3 c-66 1 -123 -1 -127 -4z"/>
<path d="M832 3288 l3 -43 80 -3 c85 -3 95 -9 95 -54 l0 -28 124 0 125 0 3 38
3 37 85 0 85 0 3 -82 3 -83 -85 0 c-67 0 -85 -3 -90 -16 -3 -9 -6 -67 -6 -130
l0 -114 -40 0 -40 0 0 -85 0 -85 40 0 40 0 0 -44 c0 -44 0 -45 -37 -48 -36 -3
-38 -5 -41 -40 -3 -29 1 -38 17 -43 40 -12 61 3 61 45 0 39 0 39 43 42 l42 3
3 83 3 82 44 0 44 0 3 -82 3 -83 83 -3 82 -3 0 -39 c0 -47 12 -53 103 -49 l62
3 3 -74 c3 -84 11 -98 55 -102 29 -3 32 -7 37 -43 5 -39 6 -40 48 -43 42 -3
42 -3 42 -43 l0 -39 85 0 85 0 0 -45 c0 -43 -1 -45 -30 -45 -35 0 -38 -10 -11
-34 10 -9 32 -44 47 -77 l29 -60 110 3 110 3 3 43 c3 42 3 42 43 42 35 0 39 3
39 24 0 13 3 31 6 40 5 13 -2 16 -40 16 l-46 0 0 -40 0 -40 -45 0 -45 0 0 85
0 85 -86 0 -85 0 3 41 3 42 80 1 80 1 3 43 3 42 -40 0 -41 0 0 45 0 45 84 0
85 0 3 -42 3 -43 80 0 80 0 3 88 3 88 30 -6 c39 -9 59 9 59 51 0 33 1 34 40
34 39 0 40 -1 40 -35 0 -38 20 -55 65 -55 l26 0 -3 -82 -3 -83 -31 -3 c-36 -4
-51 11 -56 53 -3 27 -7 30 -38 30 l-35 0 -3 -87 -3 -88 -129 0 -130 0 0 -40
c0 -40 0 -40 39 -40 40 0 40 0 43 -42 3 -43 3 -43 46 -46 l42 -3 0 -85 0 -84
-40 0 c-41 0 -43 -2 -52 -65 -3 -18 -13 -21 -83 -25 l-80 -5 0 -35 c0 -27 4
-35 20 -38 60 -9 64 -11 67 -50 3 -35 5 -37 41 -40 36 -3 37 -2 37 31 0 41 19
60 57 55 l28 -3 0 -85 0 -85 -125 0 -125 0 -3 43 c-3 42 -3 42 -43 42 -41 0
-41 -1 -43 -60 -1 -23 -5 -25 -47 -24 -43 0 -47 -3 -75 -44 -37 -55 -95 -103
-167 -138 -45 -22 -57 -33 -57 -51 0 -19 -5 -23 -29 -23 -50 0 -61 -9 -61 -50
0 -38 -1 -39 -37 -42 l-38 -3 -5 -80 -5 -80 -85 0 -85 0 -3 37 c-3 35 -5 37
-40 40 -35 3 -37 5 -40 40 -4 43 -10 46 -112 50 l-65 3 0 80 0 80 40 0 c39 0
40 -1 43 -37 3 -38 4 -38 48 -38 l44 0 0 40 0 40 46 0 47 0 -39 26 c-21 14
-48 34 -59 44 -11 10 -33 20 -50 22 -27 3 -30 7 -33 41 l-3 37 -84 0 -84 0 -3
87 c-3 95 -9 103 -64 89 -24 -6 -25 -9 -22 -89 l3 -82 43 -3 c43 -3 43 -3 40
-40 l-3 -37 -82 -3 -83 -3 0 -84 0 -85 63 2 c105 2 107 1 107 -98 l0 -84 -86
0 -85 0 3 -43 c2 -30 7 -41 17 -39 8 2 25 1 38 -3 19 -4 23 -12 23 -45 0 -40
0 -40 -40 -40 l-40 0 0 -75 c0 -41 -1 -78 -2 -82 -2 -5 16 -9 40 -11 l42 -3 0
86 0 86 43 -3 42 -3 3 -82 3 -83 39 0 40 0 0 124 c0 133 -1 136 -56 136 -21 0
-24 4 -24 40 l0 40 85 0 84 0 3 -127 3 -128 40 0 c39 0 40 1 45 40 5 38 7 40
43 43 l37 3 0 -85 0 -85 -82 -3 -83 -3 -3 -128 -3 -128 -42 3 -42 3 -3 83 -3
83 -37 -3 c-35 -3 -37 -5 -40 -40 -3 -30 -8 -39 -27 -44 -42 -11 -64 3 -67 44
l-3 37 -82 3 -82 3 -3 82 -3 82 -42 3 -43 3 0 44 0 44 -82 3 -83 3 -3 37 c-3
32 -7 38 -33 43 -49 11 -60 -7 -57 -94 l3 -76 85 -2 c47 -1 104 -2 127 -2 l42
-1 3 -82 3 -83 43 -3 c42 -3 42 -4 42 -42 0 -41 -11 -50 -61 -50 -27 0 -29 -2
-29 -40 0 -39 1 -40 33 -40 52 0 57 -12 57 -141 l0 -118 -42 -3 c-43 -3 -43
-3 -43 -43 l0 -40 40 0 c40 0 40 0 43 43 3 42 3 42 42 42 33 0 41 -4 46 -24 3
-13 4 -32 2 -42 -2 -16 4 -20 40 -22 27 -2 42 1 42 9 0 9 3 9 14 0 8 -7 27
-11 43 -9 25 3 28 7 28 43 0 39 -1 40 -40 45 -38 5 -40 7 -43 42 -3 37 -4 38
-43 38 l-40 0 3 88 3 87 68 3 c80 3 97 -6 97 -54 0 -32 -2 -33 -42 -36 -43 -3
-43 -3 -43 -43 0 -43 14 -52 61 -41 20 5 24 12 24 46 0 40 0 40 40 40 l39 0 3
-82 3 -83 42 -3 c42 -3 42 -3 45 -45 l3 -42 78 -3 c50 -2 84 1 93 9 11 9 14 9
14 0 0 -8 12 -11 33 -9 30 3 32 6 35 45 3 42 3 42 45 45 41 3 42 4 45 40 3 35
5 37 40 40 36 3 37 4 40 46 l3 43 42 -3 c41 -3 42 -4 47 -43 5 -39 6 -40 45
-40 40 0 40 0 43 42 3 43 3 43 43 43 l40 0 -3 -42 c-3 -42 -4 -43 -40 -46 -35
-3 -37 -5 -40 -40 l-3 -37 -85 -5 -85 -5 0 -40 0 -40 170 0 170 0 5 40 5 40
80 5 80 5 3 38 c3 36 3 37 -32 37 -49 0 -60 24 -51 111 l7 69 85 0 84 0 -3
-42 c-3 -42 -4 -43 -43 -48 -39 -5 -40 -6 -40 -45 0 -40 0 -40 43 -43 42 -3
42 -3 42 -43 0 -39 0 -39 39 -39 40 0 40 0 43 -42 3 -43 3 -43 43 -43 39 0 40
1 45 40 5 39 6 40 48 43 l42 3 0 -46 0 -46 128 3 127 3 3 43 c3 42 3 42 42 42
39 0 39 0 42 -42 l3 -43 173 -3 173 -2 -3 42 c-3 41 -5 43 -38 46 -39 4 -50
15 -50 54 0 24 -4 27 -37 30 l-38 3 -3 139 c-2 123 -1 138 13 126 18 -15 61
-6 69 15 3 8 1 26 -4 40 -9 25 -11 25 -130 25 -138 0 -134 -4 -128 105 l3 60
85 5 85 5 3 42 c3 43 3 43 42 43 35 0 39 -3 45 -30 4 -17 5 -54 3 -83 l-3 -52
43 -3 42 -3 0 124 c0 144 5 137 -100 137 l-69 0 -3 38 c-3 35 -5 37 -43 42
-39 5 -40 6 -40 45 l0 40 128 3 127 3 0 85 0 85 -42 -3 c-38 -3 -43 -6 -44
-28 -1 -48 -3 -50 -44 -50 l-40 0 0 73 c0 39 -4 77 -8 84 -5 7 -39 13 -87 15
l-80 3 -3 37 c-3 35 -5 37 -40 40 -36 3 -37 4 -40 46 l-3 42 40 0 c40 0 40 0
43 -42 l3 -43 85 0 85 0 3 42 c3 40 5 42 39 45 40 3 56 28 42 66 -8 21 -13 23
-86 20 l-78 -3 -5 -40 c-5 -39 -6 -40 -47 -43 l-42 -3 -3 43 c-3 42 -4 43 -38
43 -34 0 -35 -1 -38 -43 l-3 -43 -127 3 -127 3 0 40 0 40 83 3 82 3 0 39 c0
39 -1 40 -33 40 -42 0 -57 15 -57 57 0 32 1 33 44 33 l45 0 3 -42 3 -43 80 0
80 0 3 43 3 42 84 0 c92 0 87 3 97 -65 2 -14 12 -21 36 -23 27 -3 34 1 43 25
6 15 9 56 6 91 l-5 62 44 0 44 0 0 41 0 40 -42 -3 c-38 -3 -43 -6 -44 -28 -1
-48 -3 -50 -44 -50 l-40 0 0 73 c0 39 -4 77 -8 84 -4 6 -23 13 -42 15 -33 3
-35 6 -38 41 l-3 37 83 2 c46 0 103 1 128 2 l45 1 3 43 c3 42 3 42 -31 42 -33
0 -64 21 -54 37 3 4 1 18 -4 31 -6 17 -16 22 -44 22 -35 0 -35 0 -35 45 l0 46
-32 -6 c-50 -8 -57 2 -60 90 l-3 80 -257 3 -258 2 0 40 c0 39 0 39 43 42 42 3
42 3 42 43 l0 40 -40 0 c-40 0 -40 0 -43 -42 -3 -43 -3 -43 -42 -43 -48 0 -52
12 -48 115 l3 70 42 -3 42 -3 3 38 c3 36 5 38 43 43 39 5 40 6 40 45 l0 40
-172 3 -172 2 -3 83 -3 82 -80 0 -80 0 -3 -37 c-3 -37 -3 -37 40 -40 38 -3 43
-6 44 -28 3 -61 2 -60 44 -60 39 0 40 -1 40 -33 0 -42 15 -57 57 -57 32 0 33
-1 33 -40 0 -38 -2 -40 -29 -40 -50 0 -61 -9 -61 -51 0 -39 0 -39 -39 -39 -36
0 -39 -2 -44 -32 -3 -18 -5 -55 -4 -83 l2 -50 -40 -5 c-39 -5 -40 -6 -43 -47
-3 -42 -3 -42 -45 -45 l-42 -3 -3 -82 -3 -83 -85 0 -85 0 3 83 3 82 35 3 c41
4 50 15 50 60 0 31 2 32 40 32 40 0 40 0 40 39 0 40 0 40 43 43 42 3 42 3 45
46 l3 43 -43 -3 c-43 -3 -43 -3 -46 -45 -3 -43 -3 -43 -43 -43 -36 0 -39 2
-39 29 0 50 -9 61 -51 61 -39 0 -39 0 -39 39 0 44 -18 57 -64 45 -22 -5 -26
-12 -26 -45 0 -39 0 -39 -40 -39 l-40 0 0 84 0 85 38 3 37 3 3 88 3 87 44 0
c43 0 44 0 47 38 3 36 4 37 46 40 l42 3 0 -85 0 -86 40 0 40 0 0 85 0 85 -39
0 c-40 0 -40 0 -43 43 l-3 42 -85 0 -85 0 -3 -82 -3 -83 -39 0 c-38 0 -39 1
-42 38 l-3 37 -80 3 c-86 3 -95 8 -95 60 l0 32 -169 0 -170 0 -3 -42 c-3 -43
-3 -43 -43 -43 -40 0 -40 0 -43 43 l-3 42 -130 0 -130 0 3 -42z m866 -265 l3
-43 -131 0 -131 0 3 -42 c3 -46 7 -47 76 -32 20 4 22 2 13 -15 -6 -11 -11 -54
-11 -95 l0 -76 -39 0 c-40 0 -40 0 -43 43 -3 42 -3 42 -45 45 l-43 3 0 -45 0
-46 -39 0 c-42 0 -51 11 -51 61 0 28 2 29 45 29 l45 0 0 85 0 85 45 0 45 0 0
45 0 46 128 -3 127 -3 3 -42z m4 -255 c3 -42 4 -43 41 -46 l37 -3 0 45 0 46
46 0 45 0 -3 -42 c-3 -43 -3 -43 -45 -46 l-43 -3 0 -85 0 -84 -85 0 -85 0 0
130 0 130 44 0 45 0 3 -42z m686 -46 l3 -84 47 2 c26 2 64 2 85 1 l37 -1 0
-85 c0 -92 3 -87 -65 -97 -15 -2 -21 -12 -23 -41 -3 -36 -4 -37 -43 -37 l-40
0 3 43 c2 30 7 41 17 39 8 -2 25 -1 38 3 19 4 23 12 23 45 l0 39 -82 3 -83 3
-3 128 -3 128 43 -3 43 -3 3 -83z m-173 -192 c9 -28 -3 -58 -26 -65 -39 -13
-59 3 -59 46 0 39 0 39 39 39 31 0 41 -4 46 -20z m693 -16 c4 -40 -17 -58 -58
-49 -26 6 -30 11 -30 39 0 42 7 48 50 44 31 -3 35 -6 38 -34z m170 -138 l-3
-81 -40 -5 c-38 -5 -40 -7 -45 -45 -5 -38 -7 -40 -42 -43 -35 -3 -37 -5 -40
-40 -3 -35 -5 -37 -43 -42 -39 -5 -40 -6 -43 -47 -3 -43 -4 -43 -42 -43 -41 0
-50 11 -50 61 0 27 -2 29 -40 29 l-40 0 0 40 0 40 78 2 c42 0 100 0 129 -1
l52 -3 3 89 3 88 38 3 c34 3 37 5 37 36 0 42 12 53 55 48 l36 -4 -3 -82z
m-950 -35 c4 -39 -9 -51 -55 -51 -30 0 -32 -2 -35 -42 -3 -42 -4 -43 -40 -46
l-38 -3 0 45 0 46 40 0 40 0 0 46 0 45 43 -3 c40 -3 42 -5 45 -37z m88 -353
l1 -38 -44 0 -43 0 0 41 0 40 42 -3 c41 -3 42 -4 44 -40z m864 2 l0 -40 -45 0
-45 0 0 -45 0 -45 -86 0 -85 0 3 43 3 42 83 3 82 3 0 33 c0 42 5 46 52 46 38
0 38 0 38 -40z m-350 -85 l0 -45 -40 0 -40 0 0 45 0 45 40 0 40 0 0 -45z m90
-480 l0 -85 -39 0 c-26 0 -41 5 -45 16 -8 21 -8 139 1 147 3 4 24 7 45 7 l38
0 0 -85z m-348 -37 c3 -43 3 -43 45 -46 l42 -3 3 43 c3 43 3 43 43 43 l40 0 3
-127 3 -127 37 -3 c36 -3 37 -4 40 -45 l3 -43 44 0 44 0 3 88 3 87 45 5 45 5
-3 -92 -3 -93 40 0 c40 0 41 -1 41 -34 0 -32 20 -63 33 -50 3 4 18 3 32 0 23
-6 26 -11 23 -44 l-3 -37 -82 -3 -83 -3 0 86 0 85 -45 0 -45 0 0 -40 c0 -22
-3 -40 -7 -41 -5 0 -24 -1 -43 -2 -34 -2 -35 -1 -38 40 -3 40 -4 42 -40 45
-36 3 -37 4 -40 45 -3 42 -3 42 -45 45 -41 3 -42 4 -45 40 -3 39 -6 41 -67 50
-16 3 -20 11 -19 41 l1 37 -43 0 -44 0 0 -40 0 -40 43 0 42 0 -3 -77 c-2 -43
-5 -84 -7 -90 -3 -7 -20 -13 -39 -13 l-35 0 -3 -127 -3 -128 -43 -3 -43 -3 3
-82 3 -82 40 -5 c39 -5 40 -6 43 -47 3 -41 5 -43 35 -43 18 0 37 4 42 8 6 4
10 59 10 127 l0 120 43 3 42 3 0 -170 0 -171 -85 0 -85 0 0 40 0 40 -85 0 -85
0 0 -40 0 -40 -44 0 -45 0 -3 -42 c-3 -43 -3 -43 -45 -46 l-43 -3 0 45 0 46
-130 0 -130 0 0 -45 0 -45 -39 0 c-40 0 -40 0 -43 -42 -3 -43 -3 -43 -45 -46
-43 -3 -43 -3 -43 -43 l0 -39 -130 0 -131 0 3 82 3 83 40 5 40 5 5 125 5 125
80 0 80 0 3 -35 c4 -41 15 -50 60 -50 31 0 32 -2 32 -40 l0 -40 40 0 40 0 0
85 0 85 -40 0 -40 0 0 44 0 45 -42 3 c-42 3 -43 4 -46 43 l-3 40 46 -3 45 -4
0 46 0 46 170 0 170 0 0 39 c0 47 -12 53 -93 51 -28 -1 -58 -1 -65 -1 -10 1
-12 22 -10 84 l3 82 40 5 c39 5 40 6 43 48 3 42 3 42 42 42 38 0 39 1 42 38 3
36 4 37 43 37 39 0 40 -1 43 -37 3 -38 4 -38 48 -38 l44 0 0 40 0 40 40 0 c40
0 40 0 40 38 0 21 3 42 7 45 3 4 41 7 84 7 l78 0 3 -42z m606 -91 l3 -38 -43
3 c-36 3 -44 7 -46 26 -6 42 5 53 45 50 36 -3 38 -5 41 -41z m-530 -306 c8 -5
12 -22 10 -42 -3 -31 -6 -34 -37 -37 -20 -2 -37 2 -42 10 -29 45 24 98 69 69z
m166 3 c11 -4 16 -19 16 -45 0 -39 0 -39 -40 -39 -40 0 -40 0 -40 39 0 46 22
61 64 45z m194 -301 l-3 -128 -125 0 -125 0 -3 128 -3 127 131 0 131 0 -3
-127z m156 -219 c13 -5 16 -26 16 -130 l0 -124 -45 0 -45 0 0 40 0 40 -40 0
-40 0 0 -41 0 -40 -42 3 -43 3 0 80 0 80 40 5 c36 4 40 8 43 35 5 53 8 55 76
55 35 0 71 -3 80 -6z m-334 -214 l0 -40 -40 0 -40 0 0 40 0 40 40 0 40 0 0
-40z"/>
<path d="M2220 1215 l0 -45 -74 0 c-96 0 -106 -4 -106 -45 0 -36 13 -45 61
-45 l30 0 -3 -82 -3 -83 -42 -3 -43 -3 0 -45 0 -44 -40 0 c-40 0 -40 0 -40
-40 l0 -39 83 -3 82 -3 3 -42 c3 -42 2 -43 -27 -43 -57 0 -61 -5 -61 -91 l0
-79 45 0 45 0 0 85 0 85 39 0 c47 0 53 12 45 85 -8 65 2 113 19 96 6 -6 24
-11 39 -11 l28 0 0 84 c0 89 -4 96 -54 96 -21 0 -24 6 -30 54 -3 30 -3 68 0
85 l6 30 82 3 81 3 3 43 3 42 -85 0 -86 0 0 -45z"/>
<path d="M1700 780 l0 -40 40 0 40 0 0 40 0 40 -40 0 -40 0 0 -40z"/>
<path d="M1877 644 c-4 -4 -7 -22 -7 -40 0 -37 21 -49 65 -38 23 6 26 11 23
43 -3 33 -6 36 -38 39 -20 2 -39 0 -43 -4z"/>
<path d="M1531 466 c-7 -9 -11 -42 -9 -88 l3 -73 43 -3 42 -3 0 84 c0 68 -3
86 -16 91 -26 10 -51 7 -63 -8z"/>
<path d="M2741 726 c-7 -8 -11 -27 -9 -43 3 -25 7 -28 46 -31 l43 -3 -3 43
c-3 40 -5 43 -34 46 -18 2 -36 -3 -43 -12z"/>
<path d="M2564 3317 c-3 -8 -4 -45 -2 -83 l3 -69 40 0 40 0 0 80 0 80 -38 3
c-25 2 -39 -1 -43 -11z"/>
<path d="M2737 3323 c-4 -3 -7 -136 -7 -293 0 -231 3 -290 14 -299 9 -8 97
-11 302 -9 l289 3 3 303 2 302 -298 0 c-164 0 -302 -3 -305 -7z m517 -105 c12
-46 7 -373 -7 -391 -11 -16 -33 -17 -217 -15 l-205 3 -3 200 c-1 110 0 205 2
212 4 10 54 13 215 13 208 0 209 0 215 -22z"/>
<path d="M2917 3154 c-4 -4 -7 -63 -7 -131 l0 -123 130 0 131 0 -3 128 -3 127
-121 3 c-66 1 -123 -1 -127 -4z"/>
<path d="M837 3064 c-4 -4 -7 -101 -7 -215 l0 -208 -82 -3 -83 -3 -3 -43 -3
-43 -42 3 c-42 3 -42 3 -45 46 -3 42 -3 42 -43 42 -37 0 -39 -1 -39 -32 0 -45
-9 -56 -50 -60 -32 -3 -35 -6 -38 -40 -3 -33 0 -38 22 -44 14 -3 29 -3 34 0
16 10 34 -21 30 -51 -3 -28 -3 -28 -85 -31 -89 -3 -85 0 -95 -67 -2 -15 -12
-21 -40 -23 -29 -2 -37 -8 -42 -28 -4 -13 -2 -33 4 -44 9 -17 23 -20 133 -22
l122 -3 0 -35 0 -35 -82 -3 c-78 -3 -83 -4 -89 -27 -3 -13 -3 -33 1 -44 5 -18
16 -21 88 -23 l82 -3 3 -37 c3 -37 4 -38 43 -38 l39 0 0 -44 c0 -44 0 -45 -37
-48 -37 -3 -38 -4 -41 -46 l-3 -43 -42 3 -42 3 -5 85 -5 85 -82 3 c-88 3 -84
0 -87 57 -1 16 -9 21 -44 23 l-42 3 0 -85 0 -85 83 -3 82 -3 0 -40 0 -40 -83
-3 -83 -3 3 -82 3 -82 82 -3 82 -3 3 -42 c3 -42 3 -42 46 -45 42 -3 42 -3 42
-43 0 -39 0 -39 -39 -39 -47 0 -51 -8 -51 -101 l0 -69 -39 0 c-47 0 -54 13
-51 93 4 80 4 79 -38 75 l-37 -3 0 -170 0 -170 28 -3 c30 -4 60 14 54 32 -3 6
-1 21 4 34 6 17 16 22 44 22 35 0 35 0 35 46 l0 45 43 -3 c42 -3 42 -3 45 -45
l3 -43 85 0 84 0 0 -29 c0 -50 9 -61 51 -61 39 0 39 0 39 -40 l0 -40 75 0 c41
0 78 -1 83 -2 4 -2 8 16 10 39 3 43 4 43 42 43 46 0 50 8 50 100 0 53 -4 69
-16 74 -20 8 -208 8 -228 0 -11 -4 -16 -19 -16 -45 l0 -39 -45 0 -45 0 0 85 0
85 -40 0 -40 0 0 45 0 45 40 0 40 0 0 40 0 40 -85 0 -85 0 0 45 c0 44 1 45 33
45 48 0 57 15 57 97 l0 73 40 0 39 0 3 -82 3 -83 42 -3 c41 -3 42 -4 45 -45 3
-45 17 -54 64 -43 22 6 25 11 22 44 -3 36 -4 37 -45 40 -43 3 -43 3 -43 42 0
41 2 43 65 52 16 3 20 11 20 38 0 27 -4 35 -20 38 -65 10 -66 11 -63 50 l3 37
82 3 82 3 3 -128 3 -128 40 0 c39 0 40 1 45 40 5 38 7 40 45 45 38 5 40 7 40
40 1 33 3 35 40 40 l40 5 5 85 5 85 43 3 42 3 0 -130 0 -131 40 0 c39 0 40 1
40 36 0 27 5 37 19 41 11 3 22 17 26 31 3 15 8 35 11 44 4 12 -2 17 -23 20
-25 3 -28 7 -28 43 0 40 0 40 43 43 42 3 42 3 42 43 0 37 1 39 31 39 28 0 67
24 133 82 6 4 -29 8 -77 8 l-87 0 0 -45 0 -45 -39 0 c-42 0 -51 11 -51 61 0
27 -3 29 -39 29 -40 0 -40 0 -43 -42 -3 -43 -3 -43 -43 -43 l-40 0 -3 83 -3
82 38 2 c21 0 58 1 83 2 l45 1 3 88 3 87 -41 0 c-40 0 -40 0 -40 39 0 47 -3
50 -52 44 -37 -5 -38 -7 -38 -44 l0 -39 45 0 c44 0 45 0 45 -34 0 -48 -17 -57
-97 -54 l-68 3 -5 80 -5 80 -65 3 c-105 4 -112 7 -108 50 3 35 5 37 43 42 39
5 40 6 43 47 3 42 3 42 45 45 41 3 42 4 42 38 0 33 -2 35 -40 40 -39 5 -40 6
-43 48 l-3 42 39 0 c43 0 52 -10 52 -61 0 -29 2 -30 38 -27 l37 3 0 85 0 85
-40 3 -40 3 3 39 c4 37 6 39 40 42 36 3 37 4 37 43 0 39 -1 40 -37 43 l-38 3
0 -45 c0 -45 -1 -46 -32 -46 -45 0 -56 9 -60 50 -3 32 -6 35 -38 38 -20 2 -39
0 -43 -4z m-93 -530 c3 -9 6 -26 6 -39 0 -26 28 -40 60 -30 18 6 20 2 20 -39
l0 -45 43 -3 42 -3 3 -80 c3 -85 9 -95 55 -95 31 0 42 -18 33 -55 -6 -24 -9
-25 -91 -25 l-85 0 0 -45 0 -45 -39 0 c-39 0 -40 -1 -43 -37 -3 -37 -4 -38
-45 -41 l-43 -3 0 40 0 41 45 0 45 0 0 44 0 45 -42 3 -43 3 -3 50 c-3 40 -1
48 9 38 7 -7 28 -13 46 -13 32 0 33 1 33 45 l0 44 -87 3 -88 3 0 85 c0 84 0
85 25 86 59 2 60 2 60 44 0 40 0 40 39 40 26 0 41 -5 45 -16z m259 -605 c5 -9
7 -28 3 -42 -6 -27 -8 -27 -91 -27 l-85 0 0 38 c0 21 3 42 7 46 4 4 41 5 81 4
55 -2 78 -7 85 -19z m-175 -806 l3 -43 -85 0 -86 0 0 45 0 46 83 -3 82 -3 3
-42z"/>
<path d="M693 2463 c-31 -4 -33 -7 -33 -44 l0 -39 45 0 45 0 0 -46 0 -45 38 3
c36 3 37 4 40 46 l3 42 -40 0 c-40 0 -40 0 -43 42 -3 45 -6 47 -55 41z"/>
<path d="M750 2160 l0 -40 40 0 40 0 0 40 0 40 -40 0 -40 0 0 -40z"/>
<path d="M2130 2942 c0 -21 2 -41 4 -43 3 -3 23 -3 46 -1 41 4 41 5 38 41 -3
35 -4 36 -45 39 l-43 3 0 -39z"/>
<path d="M142 2598 c3 -41 5 -43 37 -46 39 -4 49 7 47 52 -1 29 -4 31 -44 34
l-43 3 3 -43z"/>
<path d="M3259 2633 c-3 -15 -6 -38 -8 -60 -1 -20 -7 -23 -42 -23 l-40 0 3
-42 c3 -38 6 -43 28 -46 38 -4 53 12 52 52 -1 34 0 35 41 38 42 3 42 3 45 46
l3 42 -40 0 c-23 0 -42 -3 -42 -7z"/>
<path d="M1360 2462 c-6 -2 -10 -54 -10 -127 0 -116 1 -124 21 -130 11 -4 31
-4 45 -1 20 5 24 12 24 46 l0 39 121 3 c133 3 148 10 135 61 -6 25 -9 26 -89
29 l-82 3 -5 39 -5 38 -73 2 c-39 0 -77 0 -82 -2z"/>
<path d="M1520 2166 c0 -44 6 -47 53 -29 28 12 37 21 37 39 0 22 -4 24 -45 24
-45 0 -45 0 -45 -34z"/>
<path d="M1700 2185 c0 -11 11 -15 40 -15 29 0 40 4 40 15 0 11 -11 15 -40 15
-29 0 -40 -4 -40 -15z"/>
<path d="M1645 2077 c-109 -37 -186 -103 -232 -202 -24 -51 -28 -73 -28 -145
0 -72 4 -94 28 -146 36 -77 104 -145 182 -181 51 -24 73 -28 145 -28 72 0 94
4 145 28 78 36 146 104 182 181 24 52 28 74 28 146 0 72 -4 94 -28 146 -57
123 -177 204 -311 211 -41 1 -88 -3 -111 -10z m35 -177 c0 -13 117 -13 125 0
7 11 47 4 86 -16 41 -20 81 -121 83 -207 l1 -71 -58 -30 c-56 -29 -58 -29 -72
-10 -12 17 -12 20 0 30 27 20 16 22 -37 6 -52 -15 -123 -10 -183 12 -18 7 -18
6 2 -11 19 -16 20 -20 8 -37 -14 -18 -16 -18 -72 10 l-58 29 1 70 c0 55 7 84
29 133 28 62 43 77 94 93 37 11 51 10 51 -1z"/>
<path d="M1632 1748 c-14 -14 -15 -47 -3 -66 5 -8 21 -12 37 -10 23 2 30 8 32
31 6 47 -36 75 -66 45z"/>
<path d="M1791 1746 c-7 -8 -11 -27 -9 -43 2 -23 8 -29 35 -31 28 -3 33 0 39
24 4 15 2 34 -3 43 -14 22 -47 25 -62 7z"/>
<path d="M2180 1730 c0 -34 3 -41 18 -38 12 2 17 13 17 38 0 25 -5 36 -17 38
-15 3 -18 -4 -18 -38z"/>
<path d="M1267 1683 c-10 -9 -8 -55 2 -71 4 -8 17 -12 28 -10 17 3 18 8 10 46
-7 38 -23 52 -40 35z"/>
<path d="M832 1473 c3 -37 4 -38 43 -38 39 0 40 1 43 38 l3 37 -46 0 -46 0 3
-37z"/>
<path d="M3257 1503 c-2 -5 -3 -21 -3 -38 1 -28 4 -30 44 -33 l42 -3 0 40 c0
41 0 41 -39 41 -22 0 -42 -3 -44 -7z"/>
<path d="M660 1385 l0 -45 39 0 c44 0 58 20 47 66 -5 20 -12 24 -46 24 l-40 0
0 -45z"/>
<path d="M1532 1252 c-8 -6 -12 -23 -10 -43 3 -32 5 -34 43 -34 l40 0 0 40 c0
37 -2 40 -30 43 -16 1 -36 -2 -43 -6z"/>
<path d="M317 1073 c-11 -10 -8 -73 3 -74 71 -6 75 -5 78 39 l3 42 -39 0 c-21
0 -42 -3 -45 -7z"/>
<path d="M147 903 c-4 -3 -7 -24 -7 -44 l0 -39 83 3 82 2 3 43 3 42 -79 0
c-43 0 -82 -3 -85 -7z"/>
<path d="M147 733 c-4 -3 -7 -141 -7 -305 l0 -299 303 3 302 3 3 289 c2 205
-1 293 -9 302 -9 11 -68 14 -299 14 -157 0 -290 -3 -293 -7z m508 -298 l0
-210 -211 -3 -212 -2 -6 22 c-10 40 -7 368 4 389 10 18 21 19 218 17 l207 -3
0 -210z"/>
<path d="M312 433 l3 -128 125 0 125 0 3 128 3 127 -131 0 -131 0 3 -127z"/>
<path d="M3263 468 c-9 -11 -10 -32 -4 -71 0 -5 18 -7 39 -5 36 3 37 4 37 43
0 37 -2 40 -31 43 -17 2 -35 -3 -41 -10z"/>
</g>
</svg>
